<svg width="21" height="21" viewBox="0 0 21 21" fill="none" xmlns="http://www.w3.org/2000/svg">
<path d="M15.7496 0H5.24987C2.3627 0 0 2.3627 0 5.24987V15.7501C0 18.6365 2.3627 21 5.24987 21H15.7496C18.6368 21 20.9995 18.6365 20.9995 15.7501V5.24987C20.9995 2.3627 18.6368 0 15.7496 0ZM19.2494 15.7501C19.2494 17.6795 17.68 19.25 15.7496 19.25H5.24987C3.32029 19.25 1.75004 17.6795 1.75004 15.7501V5.24987C1.75004 3.32003 3.32029 1.75004 5.24987 1.75004H15.7496C17.68 1.75004 19.2494 3.32003 19.2494 5.24987V15.7501Z" fill="black"/>
</svg>
